Coordinates
version=1
nRows=23
nColumns=28
inDegrees=yes

Units are S.I. units (second, meters, Newtons, ...)
Angles are in degrees.

endheader
time	pelvis_tilt	pelvis_list	pelvis_rotation	pelvis_tx	pelvis_ty	pelvis_tz	hip_flexion_r	hip_adduction_r	hip_rotation_r	knee_angle_r	ankle_angle_r	subtalar_angle_r	mtp_angle_r	hip_flexion_l	hip_adduction_l	hip_rotation_l	knee_angle_l	socket_flexion	socket_adduction	socket_rotation	socket_tx	socket_ty	socket_tz	foot_flex	lumbar_extension	lumbar_bending	lumbar_rotation
      0.54583333	      0.93874834	     -4.61558799	     10.95003240	     -0.03549958	      0.96511766	      0.21267524	     23.81425188	      5.06527365	     -6.82037116	    -10.19282003	      6.20074354	    -18.39192231	     -3.13124217	    -18.82660285	     -5.21694674	     -6.60116017	    -12.65611616	      0.98088812	     -4.30043576	     19.41684619	      0.00000000	      0.00041666	      0.00000000	      9.93497537	     -8.64948485	      5.82637057	    -18.88189470
      0.55000000	      0.50394783	     -4.54514157	     11.02274910	     -0.03573574	      0.96452448	      0.21260384	     24.38850491	      4.84159499	     -6.93683163	    -10.41195900	      6.20406999	    -18.33086919	     -2.61849522	    -18.33693136	     -5.05583481	     -5.97153913	    -12.51199647	      1.17193965	     -4.17929975	     18.97297354	      0.00000000	      0.00021912	      0.00000000	      9.95208560	     -8.16398278	      5.66433348	    -19.18677124
      0.55416667	      0.64806152	     -4.62418717	     11.03648781	     -0.02931198	      0.96339974	      0.21232826	     24.57019299	      5.01785535	     -6.87546735	    -11.40625005	      5.78134439	    -18.38121910	     -2.48007893	    -18.64425466	     -5.20020676	     -6.09762334	    -12.82702305	      1.33075363	     -4.22078573	     18.99147502	      0.00000000	      0.00035898	      0.00000000	      9.98957780	     -8.26821404	      5.89060972	    -19.15212999
      0.55833333	      0.75575856	     -4.70033073	     10.99359474	     -0.02290943	      0.96221090	      0.21213741	     24.82858647	      5.18091555	     -6.85069678	    -12.46851187	      5.26927978	    -18.45603680	     -2.30841188	    -18.89325429	     -5.32062076	     -6.22320474	    -13.15801723	      1.54821051	     -4.23780546	     19.02328382	      0.00000000	      0.00043722	      0.00000000	      9.99933742	     -8.33927535	      6.08392957	    -19.12863088
      0.56250000	      0.82550538	     -4.76281738	     11.14019502	     -0.01639783	      0.96115368	      0.21159024	     24.92336175	      5.29807895	     -6.62105745	    -13.21339339	      4.96994264	    -18.42349467	     -2.24112704	    -19.05846481	     -5.45873915	     -6.15260351	    -13.44277987	      1.85977082	     -4.28700356	     19.11068260	      0.00000000	      0.00060563	      0.00000000	      9.96284461	     -8.31678263	      6.27273438	    -19.11019885
      0.56666667	      0.30995340	     -4.73906511	     10.63289723	     -0.01010098	      0.95897776	      0.21242114	     26.10296842	      5.42231448	     -6.16276686	    -14.73080479	      3.59024110	    -19.52769370	      0.21144538	    -18.49890583	     -5.28615585	     -6.85040524	    -14.37645154	      1.79667742	     -4.43966299	     19.31415047	      0.00000000	      0.00073251	      0.00000000	      9.92143331	     -7.76168803	      6.12347203	    -18.54627861
      0.57083333	      0.46306728	     -4.84146214	     10.64394512	     -0.00361435	      0.95795767	      0.21217915	     26.26704597	      5.60039845	     -6.15669129	    -15.74891256	      3.01498165	    -19.56013965	      0.39619180	    -18.72096724	     -5.44729684	     -6.85372877	    -14.77500774	      2.05309885	     -4.44607164	     19.25649937	      0.00000000	      0.00077995	      0.00000000	      9.82754347	     -7.85850998	      6.38830073	    -18.64434987
      0.57500000	      0.54748192	     -4.93664775	     10.58682117	      0.00286793	      0.95687811	      0.21211235	     26.51548987	      5.78546844	     -6.07985886	    -16.78927192	      2.41400636	    -19.60471820	      0.61801798	    -18.84608534	     -5.57759687	     -6.90482465	    -15.19113563	      2.35411156	     -4.43089189	     19.20007161	      0.00000000	      0.00081649	      0.00000000	      9.69592785	     -7.88538810	      6.60702004	    -18.66561250
      0.57916667	      0.16214289	     -4.98702786	     10.40520673	      0.00919932	      0.95518444	      0.21249786	     27.28962077	      5.95006681	     -5.57967275	    -17.84125573	      1.16767984	    -20.78376492	      3.05530141	    -18.22200355	     -5.61400067	     -7.20552804	    -16.35640252	      2.26423670	     -4.59829521	     19.33817025	      0.00000000	      0.00099193	      0.00000000	      9.52986272	     -7.40795508	      6.60888223	    -18.40549930
      0.58333333	      0.29347033	     -5.09501507	     10.41707615	      0.01572240	      0.95436579	      0.21247478	     27.39145885	      6.16123231	     -5.42501737	    -18.73685553	      0.79036522	    -20.68587315	      3.07712730	    -18.33510045	     -5.80254395	     -7.15755810	    -16.74155243	      2.69790511	     -4.52501489	     19.30911578	      0.00000000	      0.00109771	      0.00000000	      9.33296547	     -7.48306554	      6.84067490	    -18.42310993
      0.58750000	      0.41042838	     -5.21939852	     10.33862788	      0.02233878	      0.95349170	      0.21253131	     27.56730113	      6.39503707	     -5.32880185	    -19.74780983	      0.33932673	    -20.61009108	      3.10786299	    -18.44077186	     -5.97147067	     -7.20166384	    -17.15568368	      3.09326403	     -4.43958470	     19.18542248	      0.00000000	      0.00111887	      0.00000000	      9.07587648	     -7.53766906	      7.07563786	    -18.41810103
      0.59166667	      0.44235108	     -5.32942369	     10.15870833	      0.02907200	      0.95250445	      0.21277146	     27.85843398	      6.62637782	     -5.23937361	    -20.82702872	     -0.20357144	    -20.61374154	      3.22991488	    -18.43926990	     -6.08360290	     -7.37215798	    -17.66347519	      3.45513396	     -4.38818955	     19.03343839	      0.00000000	      0.00117443	      0.00000000	      8.76384351	     -7.49084929	      7.25881055	    -18.29458112
      0.59583333	      0.42994235	     -5.44335876	      9.97643687	      0.03562811	      0.95153040	      0.21309500	     28.17659117	      6.88021945	     -5.02115320	    -21.85824490	     -0.65201928	    -20.68977649	      3.41851102	    -18.29765941	     -6.20852631	     -7.51943399	    -18.30215764	      3.81651862	     -4.32465872	     18.92950821	      0.00000000	      0.00119418	      0.00000000	      8.40965335	     -7.40569770	      7.45218304	    -18.09463351
      0.60000000	     -0.02728615	     -5.53901081	      9.72773439	      0.04206477	      0.94998465	      0.21391348	     28.96829817	      7.15352584	     -4.44457767	    -22.86450877	     -1.43535626	    -21.66100953	      4.46301017	    -17.32636096	     -6.34086043	     -8.06882315	    -20.02150073	      3.58128774	     -4.58845383	     19.13513236	      0.00000000	      0.00155345	      0.00000000	      8.02854131	     -6.83361785	      7.42580886	    -17.66419517
      0.60416667	      0.12272750	     -5.70091081	      9.63891889	      0.04876191	      0.94945158	      0.21420314	     29.01089612	      7.45704350	     -4.36093668	    -23.74774363	     -1.66906177	    -21.60787326	      4.49480416	    -17.32309736	     -6.57895207	     -8.12775255	    -20.55409412	      4.07079293	     -4.45317262	     18.93217182	      0.00000000	      0.00163372	      0.00000000	      7.58625104	     -6.91604049	      7.67385104	    -17.64479743
      0.60833333	      0.24209022	     -5.87317227	      9.52008366	      0.05546336	      0.94892930	      0.21450486	     29.07251303	      7.76904714	     -4.25914381	    -24.61179007	     -1.85948587	    -21.58437556	      4.54057730	    -17.24200105	     -6.81597657	     -8.23958041	    -21.18702789	      4.52069351	     -4.33502135	     18.67888102	      0.00000000	      0.00168612	      0.00000000	      7.10046110	     -6.97120916	      7.93941504	    -17.54640347
      0.61250000	      0.35696485	     -6.03666290	      9.42910062	      0.06224904	      0.94848875	      0.21488882	     29.09026388	      8.08885956	     -4.12868206	    -25.42141647	     -1.98820217	    -21.57635465	      4.58632930	    -17.11201560	     -7.07023066	     -8.35193383	    -21.87493484	      4.97510145	     -4.23341227	     18.42509813	      0.00000000	      0.00180446	      0.00000000	      6.60391475	     -6.98068164	      8.16372250	    -17.42231302
      0.61666667	      0.18455017	     -6.25479733	      9.27883398	      0.06876007	      0.94764440	      0.21559203	     29.43742085	      8.48040207	     -3.83405390	    -26.22831032	     -2.12520346	    -21.88529974	      4.73666434	    -16.29484427	     -7.42766141	     -8.78614021	    -23.69000638	      4.76428569	     -4.44718372	     18.36527173	      0.00000000	      0.00228942	      0.00000000	      6.05164290	     -6.71614120	      8.33501976	    -16.83003065
      0.62083333	      0.31373108	     -6.33527143	      9.31142113	      0.07558963	      0.94761233	      0.21579752	     29.26608476	      8.67113862	     -3.73786051	    -26.78952949	     -2.19194693	    -21.85301463	      4.74847863	    -16.10093045	     -7.63755955	     -8.91975674	    -24.22963263	      5.51928704	     -4.35511196	     18.11861589	      0.00000000	      0.00273269	      0.00000000	      5.65766017	     -6.73884098	      8.45437675	    -16.83813308
      0.62500000	      0.46716467	     -6.60576581	      9.04167474	      0.08230825	      0.94720676	      0.21647390	     29.28653003	      9.15245562	     -3.68481278	    -27.68095982	     -2.17189374	    -21.87449022	      4.78023368	    -15.96741519	     -7.97617125	     -9.10976956	    -25.05168318	      5.83622966	     -4.21133668	     17.56822999	      0.00000000	      0.00249100	      0.00000000	      4.90719730	     -6.84148626	      8.83111550	    -16.79613493
      0.62916667	      0.59434459	     -6.68656562	      9.07454488	      0.08913831	      0.94733858	      0.21673790	     29.05263049	      9.34919455	     -3.60667286	    -28.15376652	     -2.17609647	    -21.85528793	      4.79710276	    -15.69520215	     -8.20773890	     -9.29971294	    -25.65728551	      6.60517233	     -4.15405299	     17.20068181	      0.00000000	      0.00296544	      0.00000000	      4.50429623	     -6.85022091	      8.93022468	    -16.76099710
      0.63333333	      0.43541398	     -7.11350846	      8.98959174	      0.09523565	      0.94652196	      0.21757568	     29.37069454	      9.93440469	     -3.53589776	    -28.85266240	     -1.99719032	    -22.15918982	      4.68588157	    -14.42420380	     -8.91550665	     -9.65672001	    -28.60502638	      5.65194693	     -4.57910863	     16.76461562	      0.00000000	      0.00356535	      0.00000000	      3.75056903	     -6.62596028	      9.34198806	    -16.16367525
      0.63750000	      0.53980028	     -7.33612359	      8.82772803	      0.10202549	      0.94649442	      0.21822711	     29.18293374	     10.38375818	     -3.33639022	    -29.34454623	     -1.78428047	    -22.21707644	      4.68779812	    -14.06601803	     -9.29041361	     -9.97095181	    -29.54548017	      6.06900601	     -4.54387132	     16.09810707	      0.00000000	      0.00377817	      0.00000000	      3.17983942	     -6.64076802	      9.62027724	    -16.19117523
